<?xml version="1.0" encoding="UTF-8"?>
<svg width="700pt" height="700pt" version="1.1" viewBox="0 0 700 700">
 <g>
  <path d="m530.82 65.887c1.3438 29.973-21.863 55.355-51.836 56.699-29.969 1.3438-55.352-21.863-56.695-51.836-1.3438-29.969 21.863-55.352 51.832-56.695 29.973-1.3438 55.355 21.863 56.699 51.832"/>
  <path d="m603.68 282.8-50.398-109.2c-8.9609-20.16-29.121-33.039-51.52-33.039h-50.398c-21.84 0-42 12.879-51.52 33.039l-50.398 109.2c-5.0391 11.762-0.55859 25.199 11.199 30.238 11.762 5.6016 25.199 0.55859 30.238-11.199l33.602-72.801-0.003906 78.961-26.32 206.08c-2.2383 15.68 8.9609 29.68 24.641 31.359h3.3594c14 0 26.32-10.641 28-24.641l21.84-171.36 21.84 171.36c1.6797 14.559 14 24.641 28 24.641h3.3594c15.68-2.2383 26.32-16.238 24.641-31.359l-25.762-206.08v-78.961l33.602 72.801c3.9219 8.3984 12.32 13.441 20.719 13.441 3.3594 0 6.7188-0.55859 9.5195-2.2383 11.762-5.043 16.801-19.043 11.762-30.242z"/>
  <path d="m276.03 175.09c1.3398 29.969-21.867 55.355-51.836 56.695-29.969 1.3438-55.355-21.863-56.695-51.832-1.3438-29.973 21.863-55.355 51.832-56.699s55.355 21.863 56.699 51.836"/>
  <path d="m293.44 269.36c-8.3984-13.441-22.961-21.281-38.078-21.281h-67.199c-15.68 0-29.68 7.8398-38.078 21.281l-52.645 82.32c-6.1602 10.078-3.3594 22.961 6.7188 29.121 10.078 6.1602 22.961 3.3594 29.121-6.7188l38.641-60.48v63.84l-25.762 134.96c-2.8008 14.559 6.7188 28 21.281 30.801 1.6797 0.55859 3.3594 0.55859 5.0391 0.55859 12.32 0 23.52-8.9609 25.762-21.281l24.078-124.32 23.52 124.32c2.2383 12.879 13.441 21.281 25.762 21.281 1.6797 0 3.3594 0 5.0391-0.55859 14.559-2.8008 23.52-16.801 21.281-30.801l-26.32-134.4v-63.84l38.641 60.48c3.9219 6.1602 10.641 10.078 17.922 10.078 3.9219 0 7.8398-1.1211 11.199-3.3594 10.078-6.1602 12.879-19.602 6.7188-29.121z"/>
 </g>
</svg>
